# xmcd CD database file
#
# Track frame offsets:
#	150
#	23366
#	43489
#	67741
#	92989
#	114037
#
# Disc length: 2416 seconds
#
# Revision: 0
# Processed by: cddbd v1.4PL0 Copyright (c) Steve Scherf et al.
# Submitted via: CDex 1.50
#
DISCID=3f096e06
DTITLE=George Gershwin - The Tremble Kids - Great Jazz Tunes of George Gershwin
DYEAR=1980
DGENRE=Jazz
TTITLE0=Somebody Loves Me
TTITLE1=S'Wonderful
TTITLE2=Embraceable You
TTITLE3=I Love You, Porgy - Strike Up The Band
TTITLE4=Lady Be Good
TTITLE5=Medley
EXTD=YEAR: 1980
EXTT0=
EXTT1=
EXTT2=
EXTT3=
EXTT4=
EXTT5=
PLAYORDER=
